<svg width="27" height="27" viewBox="0 0 27 27" fill="none" xmlns="http://www.w3.org/2000/svg">
<path d="M13.5471 12.4808L13.5479 12.4817L13.5488 12.4826C13.6669 12.6067 13.7624 12.7561 13.8281 12.9231C13.8939 13.0902 13.9281 13.2705 13.9281 13.4533C13.9281 13.6362 13.8939 13.8165 13.8281 13.9835C13.7624 14.1507 13.6669 14.3 13.5488 14.4241L13.5479 14.4249L13.5471 14.4258L4.30997 24.2035L4.30912 24.2043L4.30827 24.2052C4.19108 24.3303 4.05357 24.4275 3.90464 24.4933C3.75581 24.5589 3.5975 24.5922 3.43853 24.5922C3.27957 24.5922 3.12126 24.5589 2.97243 24.4933C2.8235 24.4275 2.68598 24.3303 2.5688 24.2052L2.5671 24.2034L2.5654 24.2017C2.44726 24.0776 2.35178 23.9282 2.28603 23.7612C2.22028 23.5941 2.18604 23.4138 2.18604 23.231C2.18604 23.048 2.22028 22.8677 2.28603 22.7007C2.35178 22.5337 2.44726 22.3842 2.5654 22.2602L2.56662 22.259L10.5105 13.8697L10.9048 13.4533L10.5105 13.0369L2.5671 4.64827L2.56687 4.64802C2.32861 4.39569 2.18918 4.04653 2.18918 3.67576C2.18918 3.49281 2.22327 3.31238 2.28874 3.14505C2.3542 2.97776 2.44933 2.82792 2.5671 2.70325C2.80441 2.45205 3.11865 2.31787 3.43853 2.31787C3.59766 2.31787 3.75613 2.351 3.90522 2.41636C4.0544 2.48177 4.19225 2.57865 4.30997 2.70325L13.5471 12.4808Z" fill="#FF0F1B" stroke="#FF0F1B" stroke-width="1.21125"/>
<path d="M13.3416 12.4808L13.3406 12.4817L13.3398 12.4826C13.2217 12.6067 13.1262 12.7561 13.0605 12.9231C12.9947 13.0902 12.9604 13.2705 12.9604 13.4533C12.9604 13.6362 12.9947 13.8165 13.0605 13.9835C13.1262 14.1507 13.2217 14.3 13.3398 14.4241L13.3406 14.4249L13.3416 14.4258L22.5786 24.2035L22.5795 24.2043L22.5803 24.2052C22.6975 24.3303 22.835 24.4275 22.984 24.4933C23.1328 24.5589 23.2911 24.5922 23.4501 24.5922C23.6091 24.5922 23.7674 24.5589 23.9162 24.4933C24.065 24.4275 24.2027 24.3303 24.3198 24.2052L24.3215 24.2034L24.3232 24.2017C24.4413 24.0776 24.5368 23.9282 24.6025 23.7612C24.6684 23.5941 24.7026 23.4138 24.7026 23.231C24.7026 23.048 24.6684 22.8677 24.6025 22.7007C24.5368 22.5337 24.4413 22.3842 24.3232 22.2602L24.322 22.259L16.3781 13.8697L15.9837 13.4533L16.3781 13.0369L24.3215 4.64827L24.3217 4.64802C24.56 4.39569 24.6995 4.04653 24.6995 3.67576C24.6995 3.49281 24.6654 3.31238 24.5999 3.14505C24.5344 2.97776 24.4392 2.82792 24.3215 2.70325C24.0841 2.45205 23.7699 2.31787 23.4501 2.31787C23.291 2.31787 23.1324 2.351 22.9833 2.41636C22.8342 2.48177 22.6963 2.57865 22.5786 2.70325L13.3416 12.4808Z" fill="#FF0F1B" stroke="#FF0F1B" stroke-width="1.21125"/>
<path d="M13.3833 3.10083V23.8139" stroke="#FF0F1B" stroke-width="3.63377" stroke-linecap="round"/>
</svg>
