<svg width="103" height="16" viewBox="0 0 103 16" fill="none" xmlns="http://www.w3.org/2000/svg">
    <path d="M0.167969 15.5789V14.245C0.477863 14.2315 0.733863 14.1911 0.935969 14.1237C1.15155 14.0564 1.31323 13.9014 1.42102 13.6589C1.54228 13.4164 1.60292 13.0256 1.60292 12.4867V4.74605C1.60292 4.38226 1.60965 4.03195 1.62313 3.69511C1.65007 3.35826 1.67028 3.10226 1.68376 2.92711C1.46818 2.94058 1.19871 2.95405 0.875337 2.96753C0.551969 2.96753 0.316179 2.97426 0.167969 2.98774V1.43153H5.96839V2.76542C5.67197 2.77889 5.41597 2.81932 5.20039 2.88668C4.98481 2.95405 4.81639 3.109 4.69513 3.35153C4.58734 3.58058 4.53344 3.97132 4.53344 4.52374V7.59574H5.9886L7.54481 4.94816C7.77386 4.54395 8.01639 4.13974 8.27239 3.73553C8.52839 3.33132 8.74397 3.05511 8.91913 2.90689C8.70355 2.92037 8.47449 2.93384 8.23197 2.94732C7.98944 2.96079 7.79407 2.97426 7.64586 2.98774V1.43153H12.5974V2.76542C12.301 2.77889 11.9777 2.83279 11.6273 2.92711C11.2905 3.02142 10.9402 3.21005 10.5764 3.493C10.2126 3.77595 9.84207 4.22058 9.46481 4.82689L7.5246 7.93932C7.79407 8.11447 8.02986 8.30311 8.23197 8.50521C8.44755 8.69384 8.63618 8.90268 8.79786 9.13174L10.8795 12.0623C11.149 12.4395 11.4252 12.7966 11.7082 13.1334C12.0046 13.4568 12.3078 13.7195 12.6177 13.9216C12.9275 14.1237 13.2307 14.2315 13.5271 14.245V15.5789H10.4147C10.3069 15.5654 10.1318 15.4442 9.88923 15.2151C9.64671 14.9861 9.39071 14.7098 9.12123 14.3865C8.85176 14.0631 8.62271 13.7734 8.43407 13.5174L6.43323 10.6071C6.25807 10.3511 6.06271 10.0884 5.84713 9.81889C5.64502 9.54942 5.44965 9.34731 5.26102 9.21258H4.53344V12.2644C4.53344 12.6282 4.52671 12.9785 4.51323 13.3153C4.49976 13.6522 4.47955 13.9082 4.4526 14.0833C4.66818 14.0564 4.93765 14.0429 5.26102 14.0429C5.59786 14.0294 5.83365 14.0227 5.96839 14.0227V15.5789H0.167969ZM20.2077 15.9023C19.2376 15.9023 18.3618 15.6934 17.5803 15.2757C16.7988 14.8581 16.179 14.2652 15.7209 13.4972C15.2763 12.7157 15.054 11.7995 15.054 10.7486C15.054 9.63026 15.283 8.65342 15.7411 7.81805C16.2127 6.96921 16.8325 6.31574 17.6005 5.85763C18.382 5.38605 19.2308 5.15026 20.147 5.15026C21.1171 5.15026 21.9862 5.35911 22.7542 5.77679C23.5222 6.19447 24.1285 6.79405 24.5731 7.57553C25.0178 8.34353 25.2401 9.26647 25.2401 10.3444C25.2401 11.4762 25.0245 12.4597 24.5934 13.2951C24.1622 14.1305 23.5694 14.7772 22.8148 15.2353C22.0603 15.6799 21.1913 15.9023 20.2077 15.9023ZM20.2885 14.4673C20.8275 14.4538 21.2317 14.2652 21.5011 13.9014C21.7841 13.5376 21.9795 13.0795 22.0873 12.5271C22.195 11.9747 22.2489 11.4155 22.2489 10.8496C22.2489 10.3511 22.2085 9.84584 22.1277 9.33384C22.0603 8.82184 21.9458 8.357 21.7841 7.93932C21.6224 7.52163 21.4001 7.18479 21.1171 6.92879C20.8477 6.67279 20.5108 6.55153 20.1066 6.565C19.5811 6.57847 19.1635 6.76711 18.8536 7.1309C18.5571 7.49468 18.3416 7.95279 18.2068 8.50521C18.0856 9.04416 18.0249 9.61005 18.0249 10.2029C18.0249 10.8901 18.099 11.5637 18.2473 12.2239C18.3955 12.8842 18.6313 13.4298 18.9546 13.861C19.2915 14.2787 19.7361 14.4808 20.2885 14.4673ZM32.0188 15.9023C31.2104 15.9023 30.4963 15.6934 29.8765 15.2757C29.2702 14.8581 28.7919 14.2652 28.4416 13.4972C28.1047 12.7292 27.9363 11.8265 27.9363 10.789C27.9363 9.69763 28.1451 8.72753 28.5628 7.87868C28.9805 7.02984 29.5666 6.36289 30.3211 5.87784C31.0757 5.39279 31.9515 5.15026 32.9485 5.15026C33.3123 5.15026 33.6357 5.19068 33.9186 5.27153C34.215 5.33889 34.4913 5.41974 34.7473 5.51405V4.18016C34.7473 3.99153 34.754 3.72205 34.7675 3.37174C34.7809 3.02142 34.8011 2.69805 34.8281 2.40163C34.6125 2.41511 34.3565 2.42858 34.0601 2.44205C33.7637 2.45553 33.5414 2.46226 33.3931 2.46226V0.926263C34.0264 0.926263 34.5519 0.892579 34.9696 0.825211C35.4007 0.757842 35.7376 0.677 35.9801 0.582684C36.2361 0.488369 36.4113 0.400789 36.5056 0.319946H37.5969V12.325C37.5969 12.5136 37.5902 12.7831 37.5767 13.1334C37.5633 13.4703 37.543 13.7936 37.5161 14.1035C37.7451 14.0766 37.9877 14.0631 38.2437 14.0631C38.4997 14.0496 38.695 14.0429 38.8298 14.0429V15.5789H34.9898C34.9763 15.4307 34.9561 15.2757 34.9291 15.1141C34.9157 14.9524 34.8955 14.7974 34.8685 14.6492C34.4239 15.1073 33.9658 15.4307 33.4942 15.6193C33.0226 15.8079 32.5308 15.9023 32.0188 15.9023ZM33.0698 14.0631C33.4201 14.0631 33.7435 13.9755 34.0399 13.8004C34.3363 13.6117 34.5721 13.3759 34.7473 13.093C34.7473 12.8909 34.7473 12.6888 34.7473 12.4867C34.7473 12.2846 34.7473 12.0825 34.7473 11.8804V7.02984C34.6125 6.92205 34.4104 6.83447 34.1409 6.76711C33.8715 6.68626 33.5953 6.64584 33.3123 6.64584C32.6925 6.65932 32.2075 6.85468 31.8571 7.23195C31.5068 7.60921 31.2576 8.08753 31.1094 8.66689C30.9746 9.24626 30.9073 9.85258 30.9073 10.4858C30.9073 11.0517 30.9746 11.6109 31.1094 12.1633C31.2576 12.7157 31.4866 13.1738 31.7965 13.5376C32.1199 13.8879 32.5443 14.0631 33.0698 14.0631ZM46.3625 15.9023C45.3789 15.9023 44.5099 15.6867 43.7553 15.2555C43.0008 14.8109 42.4147 14.1911 41.9968 13.3962C41.5791 12.5877 41.3703 11.6378 41.3703 10.5465C41.3703 9.60332 41.5791 8.72079 41.9968 7.89889C42.4147 7.077 43.0008 6.41679 43.7553 5.91826C44.5233 5.40626 45.4126 5.15026 46.4231 5.15026C46.989 5.15026 47.5414 5.2311 48.0804 5.39279C48.6193 5.541 49.1044 5.80374 49.5355 6.181C49.9802 6.55826 50.3305 7.07026 50.5865 7.717C50.856 8.36374 50.984 9.17216 50.9705 10.1423L44.3414 10.2635C44.3414 10.9911 44.429 11.6446 44.6042 12.2239C44.7928 12.8033 45.096 13.2614 45.5137 13.5983C45.9313 13.9351 46.4905 14.1035 47.1911 14.1035C47.4606 14.1035 47.7638 14.0564 48.1006 13.9621C48.4509 13.8677 48.8012 13.7128 49.1515 13.4972C49.5153 13.2682 49.8522 12.965 50.1621 12.5877L51.0715 13.4366C50.5865 14.1237 50.0678 14.6492 49.5153 15.013C48.9629 15.3633 48.4105 15.5991 47.8581 15.7204C47.3191 15.8416 46.8206 15.9023 46.3625 15.9023ZM44.4627 8.84879H48.1814C48.168 8.2829 48.0871 7.83826 47.9389 7.51489C47.8042 7.17805 47.6155 6.93553 47.373 6.78732C47.1305 6.63911 46.8475 6.565 46.5242 6.565C45.9313 6.565 45.4665 6.78058 45.1297 7.21174C44.7928 7.62942 44.5705 8.17511 44.4627 8.84879ZM100.61 15.9023C100.178 15.9023 99.8214 15.7473 99.5385 15.4374C99.269 15.1275 99.1343 14.757 99.1343 14.3258C99.1343 13.8947 99.2825 13.5242 99.5789 13.2143C99.8753 12.9044 100.219 12.7494 100.61 12.7494C101.027 12.7494 101.371 12.9044 101.64 13.2143C101.923 13.5242 102.065 13.8947 102.065 14.3258C102.065 14.757 101.93 15.1275 101.661 15.4374C101.405 15.7473 101.054 15.9023 100.61 15.9023Z" fill="black"/>
    <path d="M53.7285 15.5789V14.245C54.0384 14.2315 54.2944 14.1911 54.4965 14.1237C54.7121 14.0564 54.8738 13.9014 54.9816 13.6589C55.1028 13.4164 55.1635 13.0256 55.1635 12.4867V4.74604C55.1635 4.38225 55.1702 4.03193 55.1837 3.69509C55.2106 3.35825 55.2308 3.10225 55.2443 2.92709C55.0287 2.94056 54.7592 2.95404 54.4359 2.96751C54.1125 2.96751 53.8767 2.97425 53.7285 2.98772V1.43151H59.5289V2.7654C59.2325 2.77888 58.9765 2.8193 58.7609 2.88667C58.5454 2.95404 58.3769 3.10898 58.2557 3.35151C58.1479 3.58056 58.094 3.9713 58.094 4.52372V7.59572H59.5491L61.1054 4.94814C61.3344 4.54393 61.5769 4.13972 61.8329 3.73551C62.0889 3.3313 62.3045 3.05509 62.4797 2.90688C62.2641 2.92035 62.035 2.93383 61.7925 2.9473C61.55 2.96077 61.3546 2.97425 61.2064 2.98772V1.43151H66.158V2.7654C65.8616 2.77888 65.5382 2.83277 65.1879 2.92709C64.851 3.0214 64.5007 3.21004 64.1369 3.49298C63.7731 3.77593 63.4026 4.22056 63.0254 4.82688L61.0851 7.9393C61.3546 8.11446 61.5904 8.30309 61.7925 8.50519C62.0081 8.69383 62.1967 8.90267 62.3584 9.13172L64.4401 12.0622C64.7096 12.4395 64.9858 12.7966 65.2687 13.1334C65.5651 13.4568 65.8683 13.7195 66.1782 13.9216C66.4881 14.1237 66.7913 14.2315 67.0877 14.245V15.5789H63.9753C63.8675 15.5654 63.6923 15.4441 63.4498 15.2151C63.2073 14.986 62.9512 14.7098 62.6818 14.3865C62.4123 14.0631 62.1833 13.7734 61.9946 13.5174L59.9938 10.6071C59.8186 10.3511 59.6232 10.0884 59.4077 9.81888C59.2056 9.5494 59.0102 9.3473 58.8216 9.21256H58.094V12.2644C58.094 12.6281 58.0872 12.9785 58.0738 13.3153C58.0603 13.6521 58.0401 13.9081 58.0131 14.0833C58.2287 14.0564 58.4982 14.0429 58.8216 14.0429C59.1584 14.0294 59.3942 14.0227 59.5289 14.0227V15.5789H53.7285ZM69.3496 14.2652C69.7268 14.2652 69.9963 14.1911 70.158 14.0429C70.3197 13.8947 70.4207 13.6858 70.4611 13.4164C70.515 13.1334 70.542 12.8168 70.542 12.4665V9.11151C70.542 8.86898 70.5487 8.59277 70.5622 8.28288C70.5757 7.95951 70.5959 7.64961 70.6228 7.35319C70.4072 7.36667 70.1513 7.38014 69.8548 7.39361C69.5719 7.39361 69.3563 7.40035 69.2081 7.41383V5.87783C69.8279 5.87783 70.3534 5.84414 70.7845 5.77677C71.2157 5.7094 71.5525 5.62856 71.795 5.53425C72.051 5.43993 72.2262 5.35235 72.3205 5.27151H73.4119V12.325C73.4119 12.5136 73.4051 12.7831 73.3917 13.1334C73.3782 13.4702 73.358 13.7936 73.331 14.1035C73.5466 14.0766 73.7824 14.0631 74.0384 14.0631C74.3079 14.0496 74.51 14.0429 74.6447 14.0429V15.5789H69.3496V14.2652ZM71.8759 3.67488C71.4178 3.67488 71.0405 3.51319 70.7441 3.18983C70.4477 2.86646 70.2995 2.47572 70.2995 2.01761C70.2995 1.55951 70.4544 1.16877 70.7643 0.845405C71.0742 0.522036 71.438 0.360352 71.8557 0.360352C72.2868 0.360352 72.6439 0.522036 72.9268 0.845405C73.2232 1.16877 73.3715 1.55951 73.3715 2.01761C73.3715 2.47572 73.2367 2.86646 72.9673 3.18983C72.6978 3.51319 72.334 3.67488 71.8759 3.67488ZM81.2986 15.9022C80.8944 15.9022 80.5037 15.8551 80.1264 15.7608C79.7491 15.6665 79.4123 15.4913 79.1159 15.2353C78.8195 14.9658 78.5837 14.5751 78.4085 14.0631C78.2334 13.5511 78.1458 12.8707 78.1458 12.0218L78.1862 7.15109H76.8119V5.47361C77.2296 5.46014 77.6338 5.31867 78.0245 5.04919C78.4153 4.77972 78.7454 4.4294 79.0148 3.99825C79.2978 3.56709 79.4864 3.11572 79.5807 2.64414H81.0763L81.0561 5.47361H83.6228V7.02982L81.0561 7.09046L81.0359 12.0622C81.0359 12.3721 81.0628 12.682 81.1167 12.9919C81.1841 13.2884 81.3054 13.5376 81.4805 13.7397C81.6557 13.9284 81.9117 14.0227 82.2485 14.0227C82.4371 14.0227 82.6931 13.9553 83.0165 13.8206C83.3534 13.6858 83.7104 13.349 84.0877 12.81L85.0578 13.7195C84.694 14.2585 84.3167 14.6761 83.926 14.9726C83.5352 15.269 83.158 15.4846 82.7942 15.6193C82.4439 15.754 82.134 15.8349 81.8645 15.8618C81.595 15.8888 81.4064 15.9022 81.2986 15.9022ZM92.6788 15.5789C92.6519 15.3902 92.6317 15.2353 92.6182 15.114C92.6182 14.9793 92.6115 14.8244 92.598 14.6492C92.1399 15.1073 91.6548 15.4307 91.1428 15.6193C90.6308 15.8079 90.1121 15.9022 89.5866 15.9022C88.7243 15.9022 88.0506 15.6462 87.5656 15.1342C87.0805 14.6222 86.838 13.9822 86.838 13.2142C86.838 12.5675 86.9997 12.0151 87.323 11.557C87.6599 11.0989 88.0978 10.7284 88.6367 10.4454C89.1891 10.149 89.7955 9.92667 90.4557 9.77846C91.1294 9.61677 91.803 9.52246 92.4767 9.49551V8.44456C92.4767 8.09425 92.4296 7.77761 92.3353 7.49467C92.2544 7.21172 92.1062 6.9894 91.8906 6.82772C91.6885 6.66604 91.3988 6.59193 91.0216 6.6054C90.7656 6.61888 90.5163 6.67277 90.2738 6.76709C90.0313 6.8614 89.8224 6.99614 89.6472 7.1713C89.755 7.29256 89.8224 7.4273 89.8494 7.57551C89.8763 7.71025 89.8898 7.83151 89.8898 7.9393C89.8898 8.20877 89.782 8.49172 89.5664 8.78814C89.3508 9.07109 89.0072 9.20583 88.5357 9.19235C88.1315 9.17888 87.8216 9.0374 87.606 8.76793C87.3904 8.49846 87.2826 8.18183 87.2826 7.81804C87.2826 7.27909 87.4713 6.81425 87.8485 6.42351C88.2393 6.0193 88.758 5.7094 89.4047 5.49383C90.0515 5.26477 90.7656 5.15025 91.547 5.15025C92.7327 5.15025 93.6489 5.46014 94.2957 6.07993C94.9559 6.68625 95.286 7.66309 95.286 9.01046C95.286 9.46856 95.286 9.8593 95.286 10.1827C95.286 10.506 95.2793 10.8294 95.2658 11.1528C95.2658 11.4761 95.2658 11.8669 95.2658 12.325C95.2658 12.5136 95.259 12.7831 95.2456 13.1334C95.2321 13.4702 95.2119 13.7936 95.1849 14.1035C95.414 14.0766 95.6565 14.0631 95.9125 14.0631C96.1685 14.0496 96.3639 14.0429 96.4986 14.0429V15.5789H92.6788ZM92.4565 10.9305C92.0793 10.9709 91.7222 11.0382 91.3854 11.1326C91.0485 11.2269 90.7521 11.3549 90.4961 11.5166C90.2536 11.6782 90.0582 11.8736 89.91 12.1027C89.7753 12.3317 89.7079 12.5877 89.7079 12.8707C89.7214 13.2479 89.8426 13.5174 90.0717 13.6791C90.3007 13.8408 90.5635 13.9216 90.8599 13.9216C91.1698 13.9216 91.4595 13.8542 91.7289 13.7195C91.9984 13.5848 92.2409 13.4096 92.4565 13.194C92.4565 13.0593 92.4565 12.9313 92.4565 12.81C92.4565 12.6753 92.4565 12.5406 92.4565 12.4058C92.4565 12.1633 92.4565 11.9208 92.4565 11.6782C92.4565 11.4222 92.4565 11.173 92.4565 10.9305Z" fill="#FF0728"/>
</svg>
