<svg width="20" height="18" viewBox="0 0 20 18" fill="none" xmlns="http://www.w3.org/2000/svg">
<path d="M8.15168 8.39766L8.15309 8.39913C8.2263 8.47544 8.28566 8.56755 8.32659 8.67079C8.36753 8.77405 8.38889 8.88563 8.38889 8.99886C8.38889 9.1121 8.36753 9.22367 8.32659 9.32694C8.28566 9.43017 8.2263 9.52229 8.15309 9.59859L8.15168 9.60007L1.81297 16.2612L1.81157 16.2627C1.73895 16.3397 1.65393 16.3993 1.56211 16.4395C1.47035 16.4797 1.37288 16.5 1.27509 16.5C1.1773 16.5 1.07983 16.4797 0.988077 16.4395C0.896255 16.3993 0.81123 16.3397 0.738615 16.2627L0.738627 16.2627L0.735793 16.2598C0.66259 16.1835 0.603232 16.0914 0.562304 15.9881C0.521363 15.8848 0.5 15.7733 0.5 15.66C0.5 15.5468 0.521363 15.4352 0.562304 15.332C0.603232 15.2287 0.662589 15.1366 0.735795 15.0603L0.736807 15.0593L6.18809 9.34396L6.51725 8.99886L6.18809 8.65377L0.737208 2.9389C0.737155 2.93884 0.737103 2.93879 0.737051 2.93873C0.589261 2.78333 0.502164 2.56756 0.502164 2.33769C0.502164 2.22433 0.523437 2.11262 0.564228 2.00913C0.605007 1.90567 0.664175 1.81323 0.737208 1.73648C0.884291 1.58191 1.07833 1.5 1.27509 1.5C1.37305 1.5 1.47069 1.52024 1.56266 1.56028C1.6547 1.60034 1.73999 1.65978 1.81298 1.73648L8.15168 8.39766Z" fill="#FF0F1B" stroke="#FF0F1B"/>
<path d="M11.6257 8.39766L11.6242 8.39913C11.551 8.47544 11.4917 8.56755 11.4508 8.67079C11.4098 8.77405 11.3885 8.88563 11.3885 8.99886C11.3885 9.1121 11.4098 9.22367 11.4508 9.32694C11.4917 9.43017 11.551 9.52229 11.6243 9.59859L11.6257 9.60007L17.9644 16.2612L17.9658 16.2627C18.0384 16.3397 18.1234 16.3993 18.2152 16.4395C18.307 16.4797 18.4045 16.5 18.5023 16.5C18.6 16.5 18.6975 16.4797 18.7893 16.4395C18.8811 16.3993 18.9661 16.3397 19.0387 16.2627L19.0387 16.2627L19.0416 16.2598C19.1148 16.1835 19.1741 16.0914 19.215 15.9881C19.256 15.8848 19.2773 15.7733 19.2773 15.66C19.2773 15.5468 19.256 15.4352 19.215 15.332C19.1741 15.2287 19.1148 15.1366 19.0415 15.0603L19.0405 15.0593L13.5893 9.34396L13.2601 8.99886L13.5893 8.65377L19.0401 2.9389C19.0402 2.93884 19.0402 2.93879 19.0403 2.93873C19.1881 2.78333 19.2752 2.56756 19.2752 2.33769C19.2752 2.22433 19.2539 2.11262 19.2131 2.00913C19.1723 1.90567 19.1132 1.81323 19.0401 1.73648C18.8931 1.58191 18.699 1.5 18.5023 1.5C18.4043 1.5 18.3067 1.52024 18.2147 1.56028C18.1226 1.60034 18.0374 1.65978 17.9644 1.73648L11.6257 8.39766Z" fill="#FF0F1B" stroke="#FF0F1B"/>
<path d="M9.88867 2L9.88867 16" stroke="#FF0F1B" stroke-width="3" stroke-linecap="round"/>
</svg>
