<svg width="109" height="17" viewBox="0 0 109 17" fill="none" xmlns="http://www.w3.org/2000/svg">
<path d="M1.03353 16.1348C0.883745 16.1348 0.741447 16.0974 0.606638 16.0225C0.47183 15.9476 0.404426 15.8577 0.404426 15.7529C0.404426 15.5132 0.599149 15.3559 0.988596 15.281C1.55779 15.1612 1.93226 15.0039 2.112 14.8092C2.29174 14.6145 2.38162 14.2774 2.38162 13.7981L2.38162 3.62009C2.38162 3.12579 2.27677 2.78128 2.06706 2.58655C1.87234 2.39183 1.4754 2.22706 0.876255 2.09226C0.561702 2.01736 0.404426 1.86009 0.404426 1.62043C0.404426 1.51557 0.449362 1.43319 0.539234 1.37328C0.644085 1.31336 0.748936 1.2834 0.853787 1.2834C1.1983 1.2834 1.55779 1.29089 1.93226 1.30587C2.3217 1.32085 2.69617 1.34332 3.05566 1.37328C3.43013 1.38826 3.76715 1.39574 4.06672 1.39574C4.3663 1.39574 4.70332 1.38826 5.07779 1.37328C5.45226 1.3583 5.83421 1.34332 6.22366 1.32834C6.62809 1.31336 6.99506 1.30587 7.3246 1.30587C7.44443 1.30587 7.54179 1.33583 7.61668 1.39574C7.69157 1.44068 7.72902 1.51557 7.72902 1.62043C7.72902 1.77021 7.68409 1.87506 7.59421 1.93498C7.51932 1.99489 7.39949 2.04732 7.23472 2.09226C6.63557 2.25702 6.24613 2.44425 6.06638 2.65396C5.90162 2.86366 5.81923 3.19319 5.81923 3.64255L5.81923 8.20357C5.81923 8.3234 5.8417 8.41328 5.88664 8.47319C5.93157 8.53311 5.984 8.56306 6.04392 8.56306C6.11881 8.56306 6.20119 8.53311 6.29106 8.47319C6.38094 8.3983 6.48579 8.30843 6.60562 8.20357L10.9195 3.55268C11.0393 3.41787 11.1367 3.29804 11.2116 3.19319C11.3014 3.07336 11.3464 2.96102 11.3464 2.85617C11.3464 2.54162 11.0393 2.31694 10.4252 2.18213C10.2604 2.13719 10.1331 2.07728 10.0432 2.00238C9.96834 1.92749 9.93089 1.82264 9.93089 1.68783C9.93089 1.58298 9.97583 1.50808 10.0657 1.46315C10.1706 1.40323 10.2754 1.37328 10.3803 1.37328H11.9306C12.4398 1.37328 12.9341 1.37328 13.4134 1.37328C13.8928 1.3583 14.3796 1.34332 14.8739 1.32834C15.3682 1.31336 15.87 1.30587 16.3792 1.30587C16.529 1.30587 16.6638 1.33583 16.7837 1.39574C16.9035 1.44068 16.9634 1.51557 16.9634 1.62043C16.9634 1.77021 16.8885 1.88255 16.7387 1.95745C16.5889 2.01736 16.4391 2.0623 16.2894 2.09226C15.5404 2.19711 14.8814 2.36936 14.3122 2.60902C13.758 2.84868 13.2637 3.14077 12.8293 3.48528C12.3799 3.82979 11.9455 4.20425 11.5261 4.60868C11.1067 4.99813 10.6873 5.41004 10.2679 5.84443C9.84851 6.26383 9.40664 6.69072 8.9423 7.12511C8.7326 7.31983 8.74008 7.54451 8.96477 7.79915L14.3346 13.8206C14.5443 14.0453 14.7466 14.2475 14.9413 14.4272C15.151 14.607 15.3906 14.7643 15.6603 14.8991C15.9299 15.0339 16.2594 15.1612 16.6489 15.281C16.8136 15.326 16.9709 15.3784 17.1207 15.4383C17.2705 15.4982 17.3454 15.5956 17.3454 15.7304C17.3454 15.8352 17.2705 15.9251 17.1207 16C16.9709 16.0749 16.7612 16.1123 16.4916 16.1123C16.0422 16.1123 15.5929 16.0974 15.1435 16.0674C14.7091 16.0374 14.2747 16.015 13.8403 16C13.406 15.97 12.9491 15.9551 12.4698 15.9551C11.9755 15.9551 11.5111 15.97 11.0768 16C10.6574 16.0449 10.1855 16.0674 9.66128 16.0674C9.55643 16.0674 9.45157 16.0374 9.34672 15.9775C9.25685 15.9176 9.21192 15.8352 9.21192 15.7304C9.21192 15.4907 9.3617 15.3334 9.66128 15.2586C10.2604 15.1387 10.575 14.9365 10.6049 14.6519C10.6049 14.5321 10.5675 14.4197 10.4926 14.3149C10.4327 14.1951 10.3428 14.0603 10.223 13.9105L6.56068 9.664C6.45583 9.54417 6.35847 9.4543 6.2686 9.39438C6.17872 9.33447 6.09634 9.30451 6.02145 9.30451C5.96153 9.30451 5.90911 9.34196 5.86417 9.41685C5.83421 9.47677 5.81923 9.56664 5.81923 9.68647C5.81923 10.3605 5.81923 11.0271 5.81923 11.6861C5.83421 12.3452 5.85668 13.0342 5.88664 13.7532C5.90162 14.0228 5.93906 14.255 5.99898 14.4497C6.05889 14.6444 6.17123 14.8017 6.336 14.9215C6.51574 15.0414 6.80034 15.1612 7.18979 15.281C7.35455 15.326 7.49685 15.3784 7.61668 15.4383C7.73651 15.4982 7.79643 15.5956 7.79643 15.7304C7.79643 15.8352 7.72902 15.9251 7.59421 16C7.4594 16.0599 7.30962 16.0899 7.14485 16.0899C6.68051 16.0899 6.27608 16.0749 5.93157 16.0449C5.58706 16.015 5.27251 15.985 4.98792 15.9551C4.70332 15.9251 4.41872 15.9101 4.13413 15.9101C3.81957 15.9101 3.52 15.9326 3.2354 15.9775C2.95081 16.0075 2.63626 16.0374 2.29174 16.0674C1.96221 16.1123 1.54281 16.1348 1.03353 16.1348ZM23.5732 16.3146C22.6745 16.3146 21.8657 16.1123 21.1467 15.7079C20.4277 15.3035 19.851 14.7493 19.4166 14.0453C18.9972 13.3263 18.7875 12.5174 18.7875 11.6187C18.7875 10.8997 18.9223 10.2182 19.192 9.57413C19.4616 8.93004 19.836 8.36085 20.3154 7.86655C20.7947 7.37226 21.3564 6.98281 22.0005 6.69821C22.6446 6.41362 23.3336 6.27132 24.0675 6.27132C24.9962 6.27132 25.835 6.48851 26.584 6.92289C27.3329 7.35728 27.9246 7.93396 28.3589 8.65294C28.8083 9.35694 29.033 10.1283 29.033 10.9671C29.033 11.9258 28.8233 12.817 28.4039 13.6409C27.9994 14.4497 27.3928 15.1013 26.584 15.5956C25.7901 16.0749 24.7865 16.3146 23.5732 16.3146ZM24.0226 15.326C24.3371 15.326 24.6068 15.266 24.8314 15.1462C25.0711 15.0114 25.2658 14.8167 25.4156 14.562C25.5954 14.2625 25.7152 13.858 25.7751 13.3488C25.85 12.8245 25.8874 12.2104 25.8874 11.5064C25.8874 10.6975 25.7976 9.97855 25.6178 9.34945C25.4381 8.70536 25.1834 8.19608 24.8539 7.82162C24.5394 7.44715 24.1649 7.25991 23.7305 7.25991C23.4909 7.25991 23.2737 7.30485 23.0789 7.39472C22.8842 7.46962 22.712 7.58196 22.5622 7.73174C22.3075 8.03132 22.1278 8.45821 22.0229 9.01243C21.9331 9.56664 21.8881 10.2482 21.8881 11.057C21.8881 11.776 21.978 12.465 22.1577 13.1241C22.3525 13.7682 22.6071 14.2999 22.9217 14.7193C23.2512 15.1237 23.6182 15.326 24.0226 15.326ZM39.1645 16.4269C39.1196 16.4269 39.0522 16.3745 38.9623 16.2696C38.8874 16.1797 38.85 16.1049 38.85 16.0449C38.8799 15.8203 38.9024 15.6106 38.9174 15.4158C38.9473 15.2061 38.9623 15.0189 38.9623 14.8541V14.7193C38.6627 15.1837 38.2433 15.5656 37.7041 15.8652C37.1798 16.1648 36.6106 16.3146 35.9965 16.3146C35.1577 16.3146 34.4088 16.1049 33.7497 15.6854C33.1056 15.266 32.5963 14.6969 32.2219 13.9779C31.8474 13.2589 31.6602 12.4725 31.6602 11.6187C31.6602 10.6002 31.8848 9.69396 32.3342 8.90009C32.7836 8.10621 33.4127 7.4846 34.2215 7.03523C35.0304 6.57089 35.9665 6.33872 37.03 6.33872C37.2547 6.33872 37.4869 6.36119 37.7265 6.40613C37.9812 6.43609 38.2134 6.48102 38.4231 6.54094C38.6328 6.58587 38.7301 6.60834 38.7151 6.60834C38.7751 6.60834 38.805 6.51098 38.805 6.31626V3.64255C38.805 3.10332 38.7376 2.71387 38.6028 2.47421C38.468 2.23455 38.2433 2.08477 37.9288 2.02485C37.749 1.97992 37.6591 1.86757 37.6591 1.68783C37.6591 1.49311 37.7415 1.38077 37.9063 1.35081C38.4605 1.23098 39.0297 1.08119 39.6139 0.901446C40.213 0.706723 40.6998 0.526978 41.0743 0.362212C41.269 0.27234 41.4038 0.219915 41.4787 0.204937C41.5536 0.174979 41.5985 0.16 41.6135 0.16C41.7783 0.16 41.8607 0.249872 41.8607 0.429617C41.8607 0.384681 41.8532 0.444595 41.8382 0.609361C41.8232 0.759149 41.8082 0.961362 41.7933 1.216C41.7783 1.47064 41.7633 1.72528 41.7483 1.97992L41.636 13.3038C41.636 13.8131 41.6734 14.1801 41.7483 14.4048C41.8232 14.6294 41.958 14.7418 42.1528 14.7418C42.2277 14.7418 42.3025 14.7343 42.3774 14.7193C42.4673 14.7043 42.6845 14.6894 43.029 14.6744C43.2387 14.6594 43.3436 14.7343 43.3436 14.8991C43.3436 15.0189 43.2986 15.1462 43.2088 15.281C43.1189 15.4158 43.0365 15.4832 42.9616 15.4832C42.4224 15.5431 41.8532 15.6405 41.254 15.7753C40.6699 15.9101 40.1007 16.0824 39.5465 16.2921C39.4566 16.337 39.3817 16.367 39.3218 16.382C39.2619 16.4119 39.2094 16.4269 39.1645 16.4269ZM37.1424 14.7867C37.3671 14.7867 37.6442 14.7268 37.9737 14.607C38.3182 14.4871 38.5953 14.3149 38.805 14.0902L38.7825 9.12477C38.7825 8.85515 38.6777 8.59302 38.468 8.33838C38.2733 8.06877 38.0186 7.84408 37.7041 7.66434C37.4045 7.4846 37.1049 7.39472 36.8054 7.39472C36.4459 7.39472 36.1088 7.54451 35.7943 7.84409C35.4947 8.12868 35.2476 8.5406 35.0528 9.07983C34.8731 9.60409 34.7832 10.2482 34.7832 11.0121C34.7832 11.6262 34.8431 12.1654 34.963 12.6298C35.0978 13.0941 35.2775 13.4911 35.5022 13.8206C35.7269 14.1351 35.9815 14.3748 36.2661 14.5396C36.5507 14.7043 36.8428 14.7867 37.1424 14.7867ZM49.4803 16.3146C48.6715 16.3146 47.945 16.1049 47.3009 15.6854C46.6718 15.2511 46.17 14.6669 45.7956 13.9329C45.4361 13.184 45.2563 12.3377 45.2563 11.394C45.2563 10.4504 45.4735 9.5966 45.9079 8.83268C46.3423 8.05379 46.934 7.43966 47.6829 6.9903C48.4318 6.52596 49.2557 6.29379 50.1544 6.29379C50.7985 6.29379 51.3751 6.43609 51.8844 6.72068C52.3937 6.9903 52.7981 7.35728 53.0977 7.82162C53.4123 8.28596 53.5695 8.81021 53.5695 9.39438C53.5695 9.96357 53.3374 10.2482 52.873 10.2482H48.3794C48.1697 10.2482 48.0124 10.3081 47.9076 10.4279C47.8177 10.5477 47.7728 10.75 47.7728 11.0346C47.7728 11.6037 47.9001 12.128 48.1547 12.6073C48.4094 13.0717 48.7539 13.4386 49.1883 13.7083C49.6226 13.9779 50.1244 14.1127 50.6936 14.1127C51.128 14.1127 51.5249 14.0303 51.8844 13.8655C52.2589 13.7008 52.6259 13.4761 52.9854 13.1915C53.0453 13.1466 53.0977 13.1091 53.1426 13.0791C53.2026 13.0342 53.255 13.0117 53.2999 13.0117C53.4497 13.0117 53.5246 13.1091 53.5246 13.3038C53.5246 13.4686 53.4647 13.6933 53.3449 13.9779C53.1951 14.3523 52.9404 14.7268 52.5809 15.1013C52.2364 15.4608 51.802 15.7529 51.2778 15.9775C50.7535 16.2022 50.1544 16.3146 49.4803 16.3146ZM48.3794 9.30451L49.7275 9.30451C50.1469 9.30451 50.439 9.29702 50.6037 9.28204C50.7685 9.26706 50.9183 9.23711 51.0531 9.19217C51.128 9.16221 51.1879 9.08732 51.2329 8.96749C51.2778 8.84766 51.3003 8.71285 51.3003 8.56306C51.3003 8.15864 51.158 7.82911 50.8734 7.57447C50.6037 7.31983 50.2667 7.19251 49.8623 7.19251C49.5477 7.19251 49.2482 7.28238 48.9636 7.46213C48.694 7.62689 48.4693 7.85157 48.2895 8.13617C48.1248 8.40579 48.0499 8.69038 48.0649 8.98996C48.0649 9.19966 48.1697 9.30451 48.3794 9.30451ZM106.753 16.674C106.274 16.674 105.855 16.4943 105.495 16.1348C105.136 15.7903 104.956 15.3709 104.956 14.8766C104.956 14.3523 105.136 13.9105 105.495 13.551C105.855 13.1915 106.274 13.0117 106.753 13.0117C107.293 13.0117 107.735 13.1915 108.079 13.551C108.439 13.9105 108.618 14.3523 108.618 14.8766C108.618 15.3709 108.439 15.7903 108.079 16.1348C107.735 16.4943 107.293 16.674 106.753 16.674Z" fill="black"/>
<path d="M56.7149 16.1348C56.5651 16.1348 56.4228 16.0974 56.288 16.0225C56.1532 15.9476 56.0858 15.8577 56.0858 15.7529C56.0858 15.5132 56.2805 15.3559 56.67 15.281C57.2391 15.1612 57.6136 15.0039 57.7934 14.8092C57.9731 14.6145 58.063 14.2774 58.063 13.7981V3.62009C58.063 3.12579 57.9581 2.78128 57.7484 2.58655C57.5537 2.39183 57.1568 2.22706 56.5576 2.09226C56.2431 2.01736 56.0858 1.86009 56.0858 1.62043C56.0858 1.51557 56.1307 1.43319 56.2206 1.37328C56.3254 1.31336 56.4303 1.2834 56.5351 1.2834C56.8797 1.2834 57.2391 1.29089 57.6136 1.30587C58.0031 1.32085 58.3775 1.34332 58.737 1.37328C59.1115 1.38826 59.4485 1.39574 59.7481 1.39574C60.0477 1.39574 60.3847 1.38826 60.7591 1.37328C61.1336 1.3583 61.5156 1.34332 61.905 1.32834C62.3094 1.31336 62.6764 1.30587 63.006 1.30587C63.1258 1.30587 63.2231 1.33583 63.298 1.39574C63.3729 1.44068 63.4104 1.51557 63.4104 1.62043C63.4104 1.77021 63.3654 1.87506 63.2756 1.93498C63.2007 1.99489 63.0808 2.04732 62.9161 2.09226C62.3169 2.25702 61.9275 2.44425 61.7477 2.65396C61.583 2.86366 61.5006 3.19319 61.5006 3.64255V8.20357C61.5006 8.3234 61.5231 8.41328 61.568 8.47319C61.6129 8.53311 61.6654 8.56306 61.7253 8.56306C61.8002 8.56306 61.8825 8.53311 61.9724 8.47319C62.0623 8.3983 62.1671 8.30843 62.287 8.20357L66.6008 3.55268C66.7207 3.41787 66.818 3.29804 66.8929 3.19319C66.9828 3.07336 67.0277 2.96102 67.0277 2.85617C67.0277 2.54162 66.7207 2.31694 66.1065 2.18213C65.9418 2.13719 65.8145 2.07728 65.7246 2.00238C65.6497 1.92749 65.6122 1.82264 65.6122 1.68783C65.6122 1.58298 65.6572 1.50808 65.7471 1.46315C65.8519 1.40323 65.9568 1.37328 66.0616 1.37328H67.6119C68.1212 1.37328 68.6155 1.37328 69.0948 1.37328C69.5741 1.3583 70.0609 1.34332 70.5552 1.32834C71.0495 1.31336 71.5513 1.30587 72.0606 1.30587C72.2104 1.30587 72.3452 1.33583 72.465 1.39574C72.5848 1.44068 72.6448 1.51557 72.6448 1.62043C72.6448 1.77021 72.5699 1.88255 72.4201 1.95745C72.2703 2.01736 72.1205 2.0623 71.9707 2.09226C71.2218 2.19711 70.5627 2.36936 69.9935 2.60902C69.4393 2.84868 68.945 3.14077 68.5106 3.48528C68.0613 3.82979 67.6269 4.20425 67.2075 4.60868C66.7881 4.99813 66.3687 5.41004 65.9493 5.84443C65.5299 6.26383 65.088 6.69072 64.6237 7.12511C64.414 7.31983 64.4214 7.54451 64.6461 7.79915L70.016 13.8206C70.2257 14.0453 70.4279 14.2475 70.6226 14.4272C70.8323 14.607 71.072 14.7643 71.3416 14.8991C71.6112 15.0339 71.9408 15.1612 72.3302 15.281C72.495 15.326 72.6522 15.3784 72.802 15.4383C72.9518 15.4982 73.0267 15.5956 73.0267 15.7304C73.0267 15.8352 72.9518 15.9251 72.802 16C72.6522 16.0749 72.4425 16.1123 72.1729 16.1123C71.7236 16.1123 71.2742 16.0974 70.8248 16.0674C70.3905 16.0374 69.9561 16.015 69.5217 16C69.0873 15.97 68.6305 15.9551 68.1511 15.9551C67.6568 15.9551 67.1925 15.97 66.7581 16C66.3387 16.0449 65.8669 16.0674 65.3426 16.0674C65.2378 16.0674 65.1329 16.0374 65.0281 15.9775C64.9382 15.9176 64.8933 15.8352 64.8933 15.7304C64.8933 15.4907 65.0431 15.3334 65.3426 15.2586C65.9418 15.1387 66.2563 14.9365 66.2863 14.6519C66.2863 14.5321 66.2488 14.4197 66.174 14.3149C66.114 14.1951 66.0242 14.0603 65.9043 13.9105L62.242 9.664C62.1372 9.54417 62.0398 9.4543 61.95 9.39438C61.8601 9.33447 61.7777 9.30451 61.7028 9.30451C61.6429 9.30451 61.5905 9.34196 61.5455 9.41685C61.5156 9.47677 61.5006 9.56664 61.5006 9.68647C61.5006 10.3605 61.5006 11.0271 61.5006 11.6861C61.5156 12.3452 61.538 13.0342 61.568 13.7532C61.583 14.0228 61.6204 14.255 61.6803 14.4497C61.7402 14.6444 61.8526 14.8017 62.0174 14.9215C62.1971 15.0414 62.4817 15.1612 62.8711 15.281C63.0359 15.326 63.1782 15.3784 63.298 15.4383C63.4179 15.4982 63.4778 15.5956 63.4778 15.7304C63.4778 15.8352 63.4104 15.9251 63.2756 16C63.1408 16.0599 62.991 16.0899 62.8262 16.0899C62.3619 16.0899 61.9574 16.0749 61.6129 16.0449C61.2684 16.015 60.9539 15.985 60.6693 15.9551C60.3847 15.9251 60.1001 15.9101 59.8155 15.9101C59.5009 15.9101 59.2014 15.9326 58.9168 15.9775C58.6322 16.0075 58.3176 16.0374 57.9731 16.0674C57.6436 16.1123 57.2242 16.1348 56.7149 16.1348ZM75.2217 16.0674C75.1319 16.0674 75.0495 16.0449 74.9746 16C74.8997 15.9401 74.8623 15.8652 74.8623 15.7753C74.8623 15.6555 74.8997 15.5581 74.9746 15.4832C75.0495 15.4083 75.1469 15.3559 75.2667 15.326C75.6561 15.2361 75.9257 15.1387 76.0755 15.0339C76.2403 14.914 76.3227 14.7343 76.3227 14.4946V9.64153C76.3227 9.13226 76.2403 8.77277 76.0755 8.56306C75.9257 8.33838 75.6861 8.20357 75.3566 8.15864C75.2667 8.14366 75.1993 8.09872 75.1543 8.02383C75.1094 7.94894 75.0869 7.85906 75.0869 7.75421C75.0869 7.52953 75.1693 7.40221 75.3341 7.37226C76.113 7.22247 76.802 7.01277 77.4012 6.74315C78.0153 6.47353 78.4871 6.26383 78.8166 6.11404C79.0563 5.99421 79.2061 5.9343 79.266 5.9343C79.4607 5.9343 79.5581 6.02417 79.5581 6.20391C79.5431 6.45855 79.5057 6.7806 79.4457 7.17004C79.4008 7.54451 79.3559 7.93396 79.3109 8.33838C79.281 8.74281 79.266 9.13226 79.266 9.50672V14.4722C79.266 14.6819 79.3409 14.8466 79.4907 14.9665C79.6554 15.0863 79.94 15.2061 80.3445 15.326C80.4643 15.3709 80.5617 15.4233 80.6366 15.4832C80.7114 15.5431 80.7489 15.633 80.7489 15.7529C80.7489 15.9476 80.6366 16.0449 80.4119 16.0449C80.1273 16.0449 79.8277 16.0374 79.5132 16.0225C79.1986 16.0075 78.8915 15.9925 78.592 15.9775C78.3074 15.9626 78.0303 15.9551 77.7606 15.9551C77.506 15.9551 77.2364 15.9626 76.9518 15.9775C76.6822 15.9925 76.3976 16.0075 76.098 16.0225C75.8134 16.0524 75.5213 16.0674 75.2217 16.0674ZM77.6932 4.92323C77.2289 4.92323 76.817 4.75098 76.4575 4.40647C76.113 4.06196 75.9407 3.65004 75.9407 3.17072C75.9407 2.66145 76.113 2.23455 76.4575 1.89004C76.817 1.54553 77.2289 1.37328 77.6932 1.37328C78.2175 1.37328 78.6519 1.54553 78.9964 1.89004C79.3409 2.23455 79.5132 2.66145 79.5132 3.17072C79.5132 3.65004 79.3409 4.06196 78.9964 4.40647C78.6519 4.75098 78.2175 4.92323 77.6932 4.92323ZM87.51 16.3146C86.5214 16.3146 85.78 16.0674 85.2857 15.5731C84.7914 15.0638 84.5442 14.3523 84.5442 13.4386V8.27098C84.5442 8.13617 84.4918 8.03881 84.387 7.97889C84.2971 7.91898 84.1173 7.88153 83.8477 7.86655H83.5556C83.4508 7.86655 83.3609 7.78417 83.286 7.6194C83.2261 7.43966 83.1962 7.28238 83.1962 7.14757C83.1962 7.11762 83.2036 7.08017 83.2186 7.03523C83.2486 6.97532 83.286 6.93787 83.331 6.92289C83.6905 6.78809 84.0724 6.58587 84.4768 6.31626C84.8962 6.03166 85.2932 5.73209 85.6676 5.41753C86.0571 5.10298 86.3716 4.84085 86.6113 4.63115C86.7162 4.55625 86.806 4.48885 86.8809 4.42894C86.9558 4.36902 87.0532 4.33906 87.173 4.33906C87.3078 4.33906 87.4052 4.36902 87.4651 4.42894C87.525 4.47387 87.54 4.5937 87.51 4.78843L87.3752 6.11404C87.3602 6.29379 87.3977 6.42111 87.4876 6.496C87.5924 6.55591 87.7347 6.58587 87.9145 6.58587H90.5882C90.6331 6.58587 90.678 6.6383 90.723 6.74315C90.7679 6.848 90.7904 6.94536 90.7904 7.03523C90.7904 7.24494 90.7604 7.44715 90.7005 7.64187C90.6406 7.8366 90.5732 7.93396 90.4983 7.93396H88.4087C88.0642 7.93396 87.8246 7.97889 87.6898 8.06877C87.5699 8.14366 87.51 8.28596 87.51 8.49566V12.7421C87.51 13.4311 87.6373 13.9479 87.892 14.2924C88.1616 14.622 88.5136 14.7867 88.948 14.7867C89.3824 14.7867 89.6969 14.7418 89.8916 14.6519C90.1013 14.562 90.2886 14.4871 90.4533 14.4272C90.5133 14.3973 90.5582 14.3823 90.5882 14.3823C90.663 14.3823 90.723 14.4272 90.7679 14.5171C90.8128 14.607 90.8353 14.7118 90.8353 14.8317C90.8353 14.9215 90.678 15.0863 90.3635 15.326C90.0489 15.5656 89.637 15.7903 89.1277 16C88.6334 16.2097 88.0942 16.3146 87.51 16.3146ZM95.4862 16.3146C95.0818 16.3146 94.7073 16.2172 94.3628 16.0225C94.0183 15.8277 93.7412 15.5731 93.5315 15.2586C93.3368 14.944 93.2394 14.5995 93.2394 14.225C93.2394 13.7157 93.3967 13.2889 93.7112 12.9443C94.0408 12.5998 94.5201 12.2928 95.1492 12.0231L97.1488 11.1469C97.4484 11.0121 97.6282 10.8923 97.6881 10.7874C97.763 10.6826 97.8004 10.4878 97.8004 10.2032L97.8229 8.92255C97.8379 8.50315 97.763 8.17362 97.5982 7.93396C97.4334 7.67932 97.1863 7.552 96.8568 7.552C96.662 7.552 96.4673 7.59694 96.2726 7.68681C96.0779 7.7617 95.9281 7.85157 95.8232 7.95643C95.7783 8.01634 95.7408 8.09123 95.7109 8.18111C95.6959 8.256 95.6884 8.33838 95.6884 8.42826C95.6884 8.51813 95.6959 8.63047 95.7109 8.76528C95.7259 8.88511 95.7333 8.98996 95.7333 9.07983C95.7333 9.1697 95.6135 9.28953 95.3739 9.43932C95.1342 9.57413 94.8571 9.70145 94.5425 9.82128C94.228 9.92613 93.9584 9.97855 93.7337 9.97855C93.6288 9.97855 93.5315 9.93362 93.4416 9.84374C93.3667 9.75387 93.3293 9.64153 93.3293 9.50672C93.3293 9.26706 93.4116 9.03489 93.5764 8.81021C93.7412 8.57055 94.0108 8.30094 94.3853 8.00136C94.7747 7.67183 95.2016 7.37974 95.6659 7.12511C96.1303 6.87047 96.5871 6.66826 97.0365 6.51847C97.5008 6.36868 97.8903 6.29379 98.2048 6.29379C99.0137 6.29379 99.6578 6.55591 100.137 7.08017C100.616 7.58945 100.841 8.27098 100.811 9.12477L100.699 13.6633C100.684 14.0078 100.744 14.2999 100.879 14.5396C101.013 14.7792 101.178 14.8991 101.373 14.8991C101.657 14.8991 101.905 14.8017 102.114 14.607C102.159 14.562 102.204 14.5396 102.249 14.5396C102.324 14.5396 102.384 14.562 102.429 14.607C102.489 14.6519 102.519 14.7118 102.519 14.7867C102.519 14.9665 102.384 15.1986 102.114 15.4832C101.83 15.7529 101.53 15.9551 101.216 16.0899C100.901 16.2397 100.571 16.3146 100.227 16.3146C99.3882 16.3146 98.6916 15.8877 98.1374 15.0339H98.0925C97.5982 15.4832 97.1488 15.8053 96.7444 16C96.355 16.2097 95.9356 16.3146 95.4862 16.3146ZM96.8343 14.8541C96.999 14.8541 97.1339 14.8317 97.2387 14.7867C97.3436 14.7268 97.4484 14.6369 97.5533 14.5171C97.5982 14.4572 97.6356 14.3823 97.6656 14.2924C97.6956 14.1876 97.7105 14.0677 97.7105 13.9329L97.7779 12.3152C97.7779 12.1654 97.7555 12.0681 97.7105 12.0231C97.6656 11.9782 97.6132 11.9557 97.5533 11.9557C97.5233 11.9557 97.4859 11.9632 97.4409 11.9782C97.396 11.9932 97.3436 12.0157 97.2836 12.0456C96.8493 12.2553 96.5272 12.4725 96.3175 12.6972C96.1078 12.9069 96.003 13.2514 96.003 13.7307C96.003 14.1651 96.0928 14.4647 96.2726 14.6294C96.4523 14.7792 96.6396 14.8541 96.8343 14.8541Z" fill="#FF0F1B"/>
</svg>
